<svg width="48" height="48" viewBox="0 0 48 48" fill="none" xmlns="http://www.w3.org/2000/svg">
<path d="M34.865 8.54911L33.8773 10.0982C40.7914 12.9148 43.6135 18.1254 43.6135 23.6177C43.6135 26.4343 42.908 28.8284 41.3558 28.8284C36.5583 28.8284 26.3988 28.8284 23.2945 28.8284C20.8957 28.8284 20.0491 27.9834 21.1779 25.7302C23.1534 21.787 29.0797 14.3231 32.7485 9.95739C33.3129 9.25325 33.7362 8.26745 31.7607 7.70414C29.7853 7.14083 26.681 7 24 7C10.454 7 1 14.3231 1 23.7586C1 32.4899 9.18405 40.6579 24 40.6579C30.4908 40.6579 38.5337 38.8272 43.1902 33.6165H39.2393C34.865 37.5597 29.0798 38.5455 24 38.5455C12.0061 38.5455 4.52761 32.3491 4.52761 23.7586C4.52761 15.8722 13.135 8.83077 23.8589 8.83077C25.1288 8.83077 25.5521 9.11242 24.1411 10.8024C21.319 14.1822 16.3804 21.0828 14.1227 25.026C11.5828 29.2509 14.1227 32.7716 19.7669 32.7716C23.7178 32.7716 37.8282 32.7716 42.3436 32.7716C43.7546 32.7716 44.6012 31.9266 45.3067 30.5183C46.0123 29.3917 47 26.9976 47 23.8994C47 17.2805 42.2024 11.3657 34.865 8.54911Z" fill="white"/>
</svg>
