<svg width="454" height="150" viewBox="0 0 454 150" fill="none" xmlns="http://www.w3.org/2000/svg">
<path d="M63.3638 133.017H55.7512V107.395H62.4594C66.7556 107.395 69.8459 110.064 69.8459 114.105C69.8459 117.079 68.5645 118.986 66.9063 119.977C68.866 120.587 71.2026 122.951 71.2026 126.078C71.1272 129.204 68.9414 133.017 63.3638 133.017ZM61.8564 110.674H59.2184V118.757H61.5549C65.3235 118.757 66.228 116.469 66.228 114.334C66.1526 112.046 64.7205 110.674 61.8564 110.674ZM63.2885 122.036H59.2184V129.662H62.987C66.0772 129.662 67.5847 128.137 67.5847 125.696C67.5093 123.561 65.8511 122.036 63.2885 122.036Z" fill="white"/>
<path d="M79.6455 133.017V107.318H93.8155V110.674H83.1126V118.833H93.514V122.112H83.1126V129.662H94.4185V133.017H79.6455Z" fill="white"/>
<path d="M103.311 133.017V107.318H106.778V129.662H116.35V133.017H103.311Z" fill="white"/>
<path d="M136.399 133.398C129.164 133.398 123.36 127.831 123.36 120.053C123.36 112.275 128.862 106.86 136.173 106.86C144.012 106.86 149.288 112.656 149.288 120.129C149.288 127.603 143.484 133.398 136.399 133.398ZM136.249 110.368C130.746 110.368 126.978 114.486 126.978 120.129C126.978 125.772 131.349 129.967 136.399 129.967C141.449 129.967 145.745 126.154 145.745 120.053C145.67 114.486 141.826 110.368 136.249 110.368Z" fill="white"/>
<path d="M183.283 133.017V121.96H171.072V133.017H167.605V107.318H171.072V118.681H183.283V107.318H186.75V133.017H183.283Z" fill="white"/>
<path d="M208.38 133.398C201.144 133.398 195.341 127.831 195.341 120.053C195.341 112.275 200.843 106.86 208.154 106.86C215.993 106.86 221.269 112.656 221.269 120.129C221.269 127.603 215.465 133.398 208.38 133.398ZM208.229 110.368C202.727 110.368 198.958 114.486 198.958 120.129C198.958 125.772 203.33 129.967 208.38 129.967C213.43 129.967 217.726 126.154 217.726 120.053C217.651 114.486 213.807 110.368 208.229 110.368Z" fill="white"/>
<path d="M243.655 133.017L233.404 121.045V133.017H229.937V107.395H238.153C242.901 107.395 245.991 110.826 245.991 114.944C245.991 119.062 242.524 122.265 238.756 122.265L248.102 133.017H243.655ZM237.474 110.674H233.404V119.443H237.399C240.489 119.443 242.298 117.461 242.298 114.715C242.373 113.038 240.791 110.674 237.474 110.674Z" fill="white"/>
<path d="M259.031 107.318H255.563V132.941H259.031V107.318Z" fill="white"/>
<path d="M272.975 129.052C272.824 129.357 272.522 129.586 272.522 129.586H286.014V133.017H266.568L279.833 111.436C280.06 111.131 280.286 110.75 280.286 110.75H268.678V107.318H286.315L272.975 129.052Z" fill="white"/>
<path d="M306.59 133.398C299.355 133.398 293.551 127.831 293.551 120.053C293.551 112.275 299.053 106.86 306.364 106.86C314.203 106.86 319.479 112.656 319.479 120.129C319.555 127.603 313.751 133.398 306.59 133.398ZM306.44 110.368C300.938 110.368 297.169 114.486 297.169 120.129C297.169 125.772 301.541 129.967 306.59 129.967C311.64 129.967 315.937 126.154 315.937 120.053C315.937 114.486 312.017 110.368 306.44 110.368Z" fill="white"/>
<path d="M345.332 133.017L332.067 114.41C331.916 114.182 331.614 113.724 331.614 113.724C331.614 113.724 331.69 114.258 331.69 114.563V133.017H328.223V107.395H331.162L344.277 125.62C344.503 125.925 344.729 126.383 344.729 126.383C344.729 126.383 344.654 125.849 344.654 125.544V107.395H348.121V133.017H345.332Z" fill="white"/>
<path d="M365.155 110.674V133.017H361.688V110.674H356.487V107.318H370.506V110.674H365.155Z" fill="white"/>
<path d="M378.874 133.017V107.318H393.044V110.674H382.341V118.833H392.817V122.112H382.341V129.662H393.722V133.017H378.874Z" fill="white"/>
<path d="M82.2819 3.73665L79.7946 7.54955C96.4519 14.489 103.235 27.0716 103.235 40.5693C103.235 47.3563 101.427 53.4569 97.884 53.4569H54.168C48.2136 53.4569 46.48 51.3217 49.118 45.9836C53.8665 36.4514 68.2626 18.1494 77.0812 7.16826C78.3625 5.56684 79.4178 3.05032 74.82 1.83019C70.0716 0.533807 62.3836 0 55.9016 0C23.0392 0 0.125977 17.9969 0.125977 41.1794C0.125977 62.5317 20.0243 82.435 55.8262 82.435C71.6544 82.435 91.1005 77.9358 102.105 65.2769H92.6079C81.905 75.038 67.8858 77.3257 55.9016 77.3257C26.9586 77.3257 8.64306 62.1504 8.64306 41.1031C8.64306 21.7336 29.3705 4.42297 55.5247 4.42297C58.6903 4.42297 59.6702 5.10929 56.3538 9.22723C49.6457 17.6156 37.7368 34.2399 32.0839 44.0009C26.0541 54.4483 32.2346 62.9129 45.7263 62.9129H100.447C103.838 62.9129 105.723 60.9302 107.682 57.4224C109.265 54.6008 111.753 48.8052 111.753 41.0269C111.753 25.394 100.145 10.9049 82.2819 3.73665Z" fill="white"/>
<path d="M439.17 38.0525H402.086C403.292 33.2482 406.986 29.9691 413.92 29.9691H449.42V21.8857H411.734C390.253 21.8857 385.128 37.3661 385.128 46.0596H431.029C437.361 46.0596 437.361 54.6767 431.256 54.6767C425.15 54.6767 380.53 54.753 380.53 54.753V21.8857H365.229V54.6767H339.829C333.045 54.6767 330.181 51.3976 330.181 46.2883V21.8857H305.685L283.752 35.841L264.833 21.8857H210.49C194.812 21.8857 183.582 31.1892 182.301 42.7805H192.476C188.33 45.4495 185.24 49.8725 183.431 54.753H151.322C145.293 54.753 142.429 51.5501 142.429 45.602V21.8857H127.128V42.0179C127.128 54.8292 134.062 62.9126 149.589 62.9126H256.693L278.702 48.8811L297.696 62.9126H320.307L290.912 41.179L314.805 25.9274V48.9574C314.805 56.1256 323.925 62.9126 332.292 62.9126H439.32C457.787 62.9126 457.711 38.0525 439.17 38.0525ZM253.98 54.8292H201.973C202.5 50.4063 204.762 46.0596 211.847 46.0596H244.031V38.0525H201.144C201.897 34.7734 205.214 30.0454 212.977 30.0454H247.045V25.6224L271.466 43.6956L253.98 54.8292Z" fill="white"/>
</svg>
