<svg width="454" height="150" viewBox="0 0 454 150" fill="none" xmlns="http://www.w3.org/2000/svg">
<path d="M82.283 3.73969L79.7957 7.55571C96.453 14.5009 103.237 27.0937 103.237 40.6024C103.237 47.3949 101.428 53.5005 97.8851 53.5005H54.169C48.2146 53.5005 46.481 51.3636 49.1191 46.0212C53.8675 36.4811 68.2637 18.1642 77.0823 7.17411C78.3636 5.57138 79.4188 3.05281 74.8211 1.83169C70.0726 0.53424 62.3846 0 55.9026 0C23.0402 0 0.126953 18.0116 0.126953 41.213C0.126953 62.5827 20.0253 82.5023 55.8272 82.5023C71.6555 82.5023 91.1016 77.9994 102.106 65.3302H92.609C81.9061 75.0992 67.8868 77.3888 55.9026 77.3888C26.9596 77.3888 8.64404 62.2011 8.64404 41.1367C8.64404 21.7513 29.3715 4.42658 55.5257 4.42658C58.6914 4.42658 59.6712 5.11346 56.3548 9.23476C49.6467 17.63 37.7378 34.2678 32.0849 44.0368C26.0551 54.4927 32.2356 62.9643 45.7273 62.9643H100.448C103.84 62.9643 105.724 60.9799 107.684 57.4692C109.266 54.6454 111.754 48.845 111.754 41.0603C111.754 25.4147 100.146 10.9138 82.283 3.73969Z" fill="white"/>
<path d="M439.171 38.0842H402.088C403.294 33.276 406.987 29.9943 413.922 29.9943H449.422V21.9043H411.736C390.255 21.9043 385.129 37.3973 385.129 46.0978H431.031C437.362 46.0978 437.362 54.722 431.257 54.722C425.152 54.722 380.531 54.7984 380.531 54.7984V21.9043H365.231V54.722H339.83C333.047 54.722 330.183 51.4403 330.183 46.3268V21.9043H305.687L283.753 35.8709L264.835 21.9043H210.491C194.814 21.9043 183.583 31.2154 182.302 42.8161H192.477C188.332 45.4873 185.241 49.9139 183.432 54.7984H151.324C145.294 54.7984 142.43 51.5929 142.43 45.6399V21.9043H127.129V42.0529C127.129 54.8747 134.063 62.9646 149.59 62.9646H256.694L278.703 48.9217L297.697 62.9646H320.309L290.914 41.2133L314.807 25.9493V48.998C314.807 56.1721 323.927 62.9646 332.293 62.9646H439.322C457.788 62.9646 457.713 38.0842 439.171 38.0842ZM253.981 54.8747H201.974C202.502 50.4481 204.763 46.0978 211.848 46.0978H244.032V38.0842H201.145C201.899 34.8024 205.215 30.0706 212.978 30.0706H247.047V25.644L271.467 43.7319L253.981 54.8747Z" fill="white"/>
<path d="M166.096 132.977H158.483V107.288H165.191C169.503 107.288 172.555 109.959 172.555 113.974C172.555 116.927 171.266 118.828 169.638 119.889C171.621 120.484 173.912 122.842 173.912 126.009C173.912 129.177 171.688 132.977 166.096 132.977ZM164.603 110.6H161.965V118.728H164.294C168.086 118.728 168.952 116.408 168.952 114.256C168.952 111.967 167.46 110.6 164.611 110.6H164.603ZM166.066 122.033H161.965V129.665H165.719C168.847 129.665 170.309 128.116 170.309 125.727C170.309 123.514 168.643 122.033 166.066 122.033Z" fill="white"/>
<path d="M191.677 132.977L181.426 120.98V132.977H177.952V107.288H186.152C190.878 107.288 194.006 110.7 194.006 114.851C194.006 119.003 190.569 122.209 186.778 122.209L196.124 132.977H191.677ZM185.527 110.6H181.426V119.431H185.459C188.587 119.431 190.396 117.462 190.396 114.714C190.396 112.951 188.835 110.6 185.527 110.6Z" fill="white"/>
<path d="M215.653 132.977L212.593 124.674H204.498L201.438 132.977H197.752L207.483 107.288H209.706L219.504 132.977H215.645H215.653ZM208.741 114.187C208.636 113.943 208.53 113.592 208.53 113.516L208.357 114.149L205.719 121.362H211.379L208.741 114.18V114.187Z" fill="white"/>
<path d="M229.039 133.398C226.469 133.398 223.929 132.726 221.6 130.795L223.582 128.086C224.939 129.314 227.125 129.986 228.866 129.986C231.436 129.986 233.207 128.826 233.207 126.399C233.207 124.216 231.225 123.018 228.972 121.858C225.361 119.996 221.675 118.378 221.675 113.486C221.675 109.685 224.457 106.869 229.009 106.869C231.542 106.869 233.871 107.639 235.853 109.051L233.976 111.936C232.416 110.776 231.089 110.318 228.972 110.318C226.989 110.318 225.324 111.341 225.324 113.272C225.324 116.05 227.758 117.004 230.886 118.584C233.773 120.026 236.825 121.888 236.825 126.185C236.825 130.795 233.283 133.398 229.039 133.398Z" fill="white"/>
<path d="M240.714 132.978V107.288H244.189V132.978H240.714ZM244.084 105.251H240.745L243.978 100.076H247.317L244.084 105.251Z" fill="white"/>
<path d="M249.405 132.977V107.288H252.88V129.665H262.505V132.97H249.405V132.977Z" fill="white"/>
<path d="M266.055 132.977V107.288H269.53V132.977H266.055Z" fill="white"/>
<path d="M290.898 132.977L287.838 124.674H279.743L276.683 132.977H272.997L282.728 107.288H284.951L294.75 132.977H290.891H290.898ZM283.987 114.187C283.881 113.943 283.776 113.592 283.776 113.516L283.602 114.149L280.964 121.362H286.625L283.987 114.18V114.187Z" fill="white"/>
</svg>
