<svg width="454" height="150" viewBox="0 0 454 150" fill="none" xmlns="http://www.w3.org/2000/svg">
<path d="M158.174 132.948H156.018L147.097 107.322H150.443L156.836 125.809C156.91 125.959 156.985 126.26 157.059 126.711C157.133 126.26 157.208 126.034 157.282 125.809L163.75 107.322H167.021L158.174 132.948Z" fill="white"/>
<path d="M178.543 107.322H175.049V132.948H178.543V107.322Z" fill="white"/>
<path d="M195.567 110.628V132.948H192.073V110.628H186.943V107.322H200.919V110.628H195.567Z" fill="white"/>
<path d="M233.183 125.357C232.514 126.936 231.547 128.364 230.432 129.566C229.243 130.768 227.905 131.67 226.344 132.346C224.783 133.023 223.073 133.399 221.289 133.399C219.504 133.399 217.795 133.098 216.233 132.422C214.672 131.745 213.26 130.843 212.07 129.641C210.881 128.439 209.989 127.086 209.32 125.433C208.651 123.779 208.279 122.051 208.279 120.097C208.279 118.143 208.576 116.49 209.245 114.912C209.915 113.333 210.807 111.906 211.922 110.703C213.037 109.501 214.449 108.599 216.01 107.923C217.572 107.246 219.281 106.946 221.14 106.946C222.998 106.946 224.857 107.321 226.492 107.998C228.128 108.674 229.466 109.576 230.655 110.778C231.77 111.981 232.663 113.409 233.332 114.987C234.001 116.565 234.298 118.368 234.298 120.172C234.224 121.976 233.926 123.704 233.183 125.357ZM229.912 116.114C229.466 114.912 228.797 113.935 227.979 113.033C227.161 112.206 226.121 111.53 225.006 111.004C223.816 110.478 222.552 110.252 221.14 110.252C219.802 110.252 218.538 110.478 217.349 111.004C216.233 111.53 215.193 112.131 214.449 113.033C213.632 113.859 213.037 114.912 212.591 116.114C212.145 117.316 211.922 118.594 211.922 120.022C211.922 121.45 212.145 122.727 212.665 124.005C213.185 125.207 213.855 126.259 214.747 127.161C215.639 128.063 216.605 128.739 217.72 129.19C218.835 129.716 220.025 129.942 221.289 129.942C222.552 129.942 223.742 129.716 224.857 129.265C225.972 128.814 226.938 128.138 227.83 127.311C228.723 126.41 229.392 125.433 229.912 124.155C230.432 122.953 230.655 121.525 230.655 120.022C230.655 118.594 230.432 117.316 229.912 116.114ZM222.478 105.292H219.133L222.329 100.107H225.675L222.478 105.292Z" fill="white"/>
<path d="M256.601 132.948L246.342 120.999V132.948H242.848V107.322H251.025C252.214 107.322 253.255 107.547 254.222 107.923C255.188 108.299 256.006 108.9 256.675 109.576C257.344 110.253 257.864 111.079 258.236 111.981C258.608 112.883 258.756 113.86 258.756 114.912C258.756 115.964 258.533 116.866 258.162 117.768C257.79 118.67 257.27 119.421 256.601 120.097C255.931 120.774 255.188 121.3 254.296 121.676C253.404 122.051 252.512 122.202 251.545 122.202L260.912 132.948H256.601ZM255.039 113.334C254.816 112.883 254.519 112.432 254.147 112.056C253.776 111.681 253.255 111.305 252.661 111.079C252.066 110.779 251.322 110.704 250.505 110.704H246.416V119.496H250.43C251.991 119.496 253.255 119.045 254.073 118.219C254.891 117.392 255.337 116.19 255.337 114.837C255.337 114.311 255.188 113.86 255.039 113.334Z" fill="white"/>
<path d="M271.989 107.322H268.495V132.948H271.989V107.322Z" fill="white"/>
<path d="M297.785 132.948L294.737 124.682H286.634L283.586 132.948H279.943L289.682 107.322H291.912L301.725 132.948H297.785ZM290.871 114.16C290.797 114.01 290.722 113.785 290.648 113.484C290.574 113.785 290.499 114.01 290.499 114.16L287.897 121.375H293.547L290.871 114.16Z" fill="white"/>
<path d="M82.3469 3.83267L79.8193 7.5902C96.4715 14.504 103.236 27.1293 103.236 40.5813C103.236 47.3448 101.452 53.432 97.8839 53.432H54.1721C48.2249 53.432 46.4407 51.2526 49.117 45.9169C53.8747 36.3728 68.2223 18.1113 77.0688 7.13929C78.3325 5.56113 79.4476 3.00602 74.7642 1.80361C70.0065 0.526053 62.3495 0 55.8819 0C23.0236 0 0.126953 17.961 0.126953 41.1073C0.126953 62.45 19.9757 82.3649 55.8076 82.3649C71.642 82.3649 91.0447 77.8559 102.047 65.2306H92.5315C81.8265 75.0002 67.7763 77.2547 55.8076 77.2547C26.8893 77.2547 8.6017 62.0743 8.6017 41.1073C8.6017 21.7936 29.3425 4.43388 55.4359 4.43388C58.5581 4.43388 59.5989 5.11023 56.2536 9.24351C49.563 17.6604 37.5943 34.2686 32.0188 43.963C25.9972 54.4089 32.1675 62.9009 45.623 62.9009H100.337C103.682 62.9009 105.615 60.947 107.622 57.415C109.184 54.5592 111.637 48.8478 111.637 41.0322C111.786 25.476 100.188 11.0471 82.3469 3.83267Z" fill="white"/>
<path d="M439.18 38.1012H402.084C403.273 33.2916 406.99 29.985 413.904 29.985H449.364V21.9438H411.674C390.19 21.9438 385.06 37.3497 385.06 46.1423H431.002C437.321 46.1423 437.321 54.7095 431.225 54.7095C425.129 54.7095 380.451 54.7846 380.451 54.7846V22.019H365.137V54.7846H339.787C333.022 54.7846 330.123 51.478 330.123 46.3678V22.019H305.665L283.735 35.997L264.852 22.019H210.584C194.899 22.019 183.673 31.2625 182.409 42.9108H192.594C188.505 45.6162 185.309 50.0501 183.599 54.8598H151.484C145.463 54.8598 142.563 51.6283 142.563 45.6914V22.019H127.249V42.1593C127.249 54.9349 134.163 62.976 149.7 62.976H256.749L278.754 48.998L297.711 62.976H320.31L290.871 41.2575L314.735 26.002V49.0732C314.735 56.2125 323.878 62.976 332.204 62.976H439.254C457.839 62.976 457.69 38.1012 439.18 38.1012ZM253.924 54.8598H201.961C202.481 50.4259 204.711 46.0672 211.848 46.0672H244.037V38.026H201.143C201.887 34.7194 205.232 29.985 212.963 29.985H247.011V25.5511L271.469 43.6623L253.924 54.8598Z" fill="white"/>
</svg>
